<svg width="57" height="57" viewBox="0 0 57 57" fill="none" xmlns="http://www.w3.org/2000/svg">
<path d="M55.7797 10.1899H10.5862C10.4982 10.1899 10.419 10.223 10.3357 10.2412L8.49751 4.13766C8.47679 4.07171 8.4327 4.02287 8.40343 3.96186C8.35326 3.33411 7.84163 2.83693 7.20153 2.83693C7.20039 2.83693 7.19792 2.83693 7.19659 2.83693L1.21654 2.8624C0.541092 2.8662 -0.00246231 3.41584 8.38953e-06 4.08996C0.00247909 4.76294 0.548504 5.30649 1.22148 5.30649C1.22262 5.30649 1.2251 5.30649 1.22643 5.30649L6.29174 5.28445L17.9846 44.091C16.823 45.1524 16.0816 46.6645 16.0816 48.3611C16.0816 51.565 18.6783 54.1629 21.8834 54.1629C25.0873 54.1629 27.6852 51.5648 27.6852 48.3611C27.6852 47.5256 27.5019 46.7365 27.1844 46.0196H44.0648C43.7472 46.7367 43.564 47.5256 43.564 48.3611C43.564 51.565 46.1607 54.1629 49.3657 54.1629C52.5697 54.1629 55.1675 51.5648 55.1675 48.3611C55.1675 45.1574 52.5695 42.5593 49.3657 42.5593C48.1492 42.5593 47.0218 42.9368 46.0886 43.5769H25.1593C24.2262 42.9368 23.0999 42.5593 21.8834 42.5593C21.2788 42.5593 20.7071 42.6777 20.1586 42.8488L18.4143 37.0616L49.1875 37.0371C49.7261 37.0371 50.1695 36.6817 50.3308 36.1967C50.3724 36.1197 50.4175 36.0452 50.442 35.9572L56.9559 11.9363C56.9975 11.7837 57.0023 11.6309 56.9852 11.4832C56.9863 11.4576 56.9998 11.4369 56.9998 11.4124C57.0011 10.7371 56.454 10.1899 55.7797 10.1899ZM49.3671 45.0011C51.2199 45.0011 52.7261 46.5071 52.7261 48.3601C52.7261 50.213 51.2201 51.7192 49.3671 51.7192C47.514 51.7192 46.0081 50.2132 46.0081 48.3601C46.0082 46.5071 47.5142 45.0011 49.3671 45.0011ZM21.8847 45.0011C23.7377 45.0011 25.2437 46.5071 25.2437 48.3601C25.2437 50.213 23.7377 51.7192 21.8847 51.7192C20.0317 51.7192 18.5257 50.2132 18.5257 48.3601C18.5257 46.5071 20.0317 45.0011 21.8847 45.0011ZM48.2813 34.5955L17.6805 34.62L11.0566 12.634H54.237L48.2813 34.5955Z" fill="white"/>
</svg>
